<svg xmlns="http://www.w3.org/2000/svg" fill="none" viewBox="0 0 20 23">
  <path fill="#E6262A" d="M6.28167 7.40864C6.19134 7.23075 6.05268 7.0836 5.88252 6.98503C5.71778 6.87479 5.52424 6.81874 5.32769 6.82436C5.04486 6.82474 4.77373 6.94026 4.57372 7.1456C4.37372 7.35094 4.26116 7.62933 4.26074 7.91975C4.26265 8.10294 4.30654 8.2831 4.38887 8.44562L8.75605 16.4491C8.83986 16.5881 8.94045 16.7157 9.05542 16.8288C9.1522 16.8881 9.25215 16.9417 9.35478 16.9895C9.47071 17.0231 9.59007 17.0427 9.71043 17.0479C9.92365 17.0477 10.1319 16.9816 10.308 16.8581C10.4591 16.7497 10.5814 16.604 10.6636 16.4345L15.0166 8.44562C15.1095 8.28677 15.1587 8.10503 15.1589 7.91975C15.1613 7.77899 15.136 7.63918 15.0846 7.50868C15.0332 7.37819 14.9566 7.25968 14.8596 7.16025C14.7625 7.05087 14.6437 6.96424 14.5111 6.90628C14.3786 6.84831 14.2354 6.82037 14.0914 6.82436C13.8948 6.81874 13.7013 6.87479 13.5366 6.98503C13.3696 7.08779 13.2319 7.23389 13.1374 7.40864L9.71383 13.6961L6.28167 7.40864Z"/>
  <path fill="#E6262A" d="M0.0199579 5.73294L0 17.2328L9.69093 23L19.401 17.2671L19.421 5.76716L9.72945 0L0.0199579 5.73294ZM17.5248 16.1504L9.69473 20.7731L1.88003 16.1227L1.896 6.84985L9.72566 2.22686L17.5404 6.87731L17.5248 16.1504Z"/>
</svg>
